<svg xmlns="http://www.w3.org/2000/svg" xml:space="preserve" width="3058px" height="821px" version="1.1" shape-rendering="geometricPrecision" text-rendering="geometricPrecision" image-rendering="optimizeQuality" fill-rule="evenodd" clip-rule="evenodd"
viewBox="0 0 3058 821"
 xmlns:xlink="http://www.w3.org/1999/xlink">
 <g id="Layer_x0020_1">
  <metadata id="CorelCorpID_0Corel-Layer"/>
  <rect fill="none" width="3058" height="821"/>
  <g id="_2214961015312">
   <path fill="#17969F" d="M404 95c183,0 330,147 330,330 0,134 -80,250 -196,301 173,-164 86,-218 -73,-304 -29,-16 -97,-47 -102,-80 -5,-41 100,-77 129,-87 50,-16 15,-16 -11,-13 -81,10 -167,40 -228,74 -34,19 -94,57 -90,102 4,49 81,86 110,120 52,59 1,112 -75,144l0 0c-75,-60 -124,-153 -124,-257 0,-183 148,-330 330,-330zm132 144l-4 20 18 -10 18 10 -4 -20 15 -14 -20 -3 -9 -18 -8 18 -21 3 15 14z"/>
   <path fill="#636363" fill-rule="nonzero" d="M884 257c-65,0 -92,35 -92,84 0,42 19,86 97,86l69 0c37,0 47,17 47,37 0,21 -13,36 -41,36l-166 0 0 52 164 0c68,0 94,-37 94,-87 0,-42 -19,-87 -99,-87l-69 0c-35,0 -44,-17 -44,-35 0,-20 12,-35 38,-35l152 0 0 -51 -150 0zm338 57c3,-7 8,-10 15,-10 7,0 12,3 15,10l89 238 58 0 -100 -263c-11,-27 -31,-38 -61,-38 -32,0 -52,11 -63,38l-103 263 57 0 93 -238zm257 4c0,-10 6,-17 18,-17 9,0 15,4 19,13l86 189c12,33 31,54 72,54 46,0 68,-25 68,-64l0 -236 -52 0 0 233c0,10 -7,17 -18,17 -9,0 -15,-5 -18,-12l-87 -189c-12,-34 -30,-55 -72,-55 -46,0 -67,26 -67,65l0 236 51 0 0 -234zm442 -61c-86,0 -134,48 -134,148 0,98 48,147 134,147l46 0c66,0 92,-41 92,-92 0,-52 -26,-84 -79,-84l-71 0 0 45 66 0c24,0 36,14 36,38 0,24 -12,41 -41,41l-49 0c-57,0 -82,-28 -82,-95 0,-68 25,-97 82,-97l122 0 0 -51 -122 0zm293 57c3,-7 8,-10 15,-10 7,0 12,3 15,10l90 238 57 0 -100 -263c-10,-27 -31,-38 -61,-38 -31,0 -52,11 -62,38l-104 263 57 0 93 -238zm144 -57l99 262c11,29 34,38 63,38 30,0 50,-10 61,-38l105 -262 -58 0 -94 237c-3,7 -7,10 -14,10 -7,0 -12,-3 -15,-10l-90 -237 -57 0zm335 0l119 168 0 127 53 0 0 -127 119 -168 -62 0 -83 126 -83 -126 -63 0z"/>
   <path fill="#17969F" fill-rule="nonzero" d="M1078 610l0 12 19 0 0 54 12 0 0 -54 19 0 0 -12 -50 0zm57 -8l0 74 11 0 0 -42 18 0c11,0 15,5 15,13l0 29 11 0 0 -29c0,-14 -9,-22 -26,-22l-18 0 0 -23 -11 0zm83 23c-12,0 -17,7 -17,16l0 18c0,10 5,17 17,17l32 0 0 -10 -32 0c-5,0 -7,-3 -7,-7l0 -4 24 0c13,0 17,-5 17,-15 0,-10 -5,-15 -17,-15l-17 0zm-7 17c0,-4 2,-8 7,-8l17 0c5,0 7,3 7,7 0,4 -2,6 -7,6l-24 0 0 -5zm102 -32c-18,0 -24,10 -24,23l0 43 11 0 0 -26 40 0 0 -11 -40 0 0 -6c0,-6 3,-11 14,-11l26 0 0 -12 -27 0zm37 15l0 31c0,12 8,20 23,20l9 0c15,0 22,-8 22,-20l0 -31 -10 0 0 30c0,6 -4,11 -12,11l-9 0c-8,0 -12,-5 -12,-11l0 -30 -11 0zm61 0l0 9 7 0 0 24c0,14 5,18 15,18l10 0 0 -10 -8 0c-4,0 -6,-1 -6,-7l0 -25 14 0 0 -9 -14 0 0 -13 -11 0 0 13 -7 0zm39 0l0 31c0,12 8,20 22,20l10 0c14,0 22,-8 22,-20l0 -31 -10 0 0 30c0,6 -4,11 -13,11l-8 0c-8,0 -13,-5 -13,-11l0 -30 -10 0zm80 0c-10,0 -14,4 -14,15l0 36 10 0 0 -35c0,-4 2,-7 7,-7l18 0 0 -9 -21 0zm45 0c-12,0 -18,7 -18,16l0 18c0,10 6,17 18,17l32 0 0 -10 -32 0c-5,0 -8,-3 -8,-7l0 -4 25 0c13,0 17,-5 17,-15 0,-10 -5,-15 -17,-15l-17 0zm-8 17c0,-4 3,-8 8,-8l17 0c5,0 7,3 7,7 0,4 -2,6 -7,6l-25 0 0 -5zm98 -17c-13,0 -22,8 -22,25 0,18 9,26 22,26l11 0c14,0 22,-8 22,-26 0,-17 -8,-25 -22,-25l-11 0zm10 9c9,0 13,5 13,16 0,11 -4,16 -13,16l-9 0c-9,0 -13,-5 -13,-16 0,-11 4,-16 13,-16l9 0zm28 -9l0 9 7 0 0 42 10 0 0 -42 15 0 0 -9 -15 0 0 -6c0,-5 2,-7 7,-7l7 0 0 -10 -9 0c-10,0 -15,5 -15,18l0 5 -7 0zm93 -15c-19,0 -30,11 -30,33 0,22 11,33 30,33l25 0 0 -12 -25 0c-13,0 -18,-6 -18,-21 0,-15 5,-21 18,-21l25 0 0 -12 -25 0zm56 15c-14,0 -22,8 -22,25 0,18 8,26 22,26l11 0c13,0 22,-8 22,-26 0,-17 -9,-25 -22,-25l-11 0zm10 9c9,0 12,5 12,16 0,11 -3,16 -12,16l-9 0c-9,0 -13,-5 -13,-16 0,-11 4,-16 13,-16l9 0zm40 -9c-5,0 -7,1 -7,8l0 43 10 0 0 -40c0,-1 0,-2 1,-2l26 0 0 42 11 0 0 -42 12 0c11,0 15,5 15,13l0 29 11 0 0 -29c0,-14 -9,-22 -26,-22l-53 0zm109 0c-12,0 -19,7 -19,22l0 50 11 0 0 -21 23 0c13,0 22,-8 22,-26 0,-17 -9,-25 -22,-25l-15 0zm-8 22c0,-9 3,-13 11,-13l10 0c9,0 13,5 13,16 0,11 -4,16 -13,16l-21 0 0 -19zm55 -45l0 74 10 0 0 -74 -10 0zm22 23l0 51 10 0 0 -51 -10 0zm0 -20l0 12 10 0 0 -12 -10 0zm25 20l0 9 30 0c6,0 8,4 8,8l0 3 -24 0c-13,0 -17,6 -17,15 0,10 5,16 17,16l24 0c8,0 10,-3 10,-10l0 -25c0,-9 -5,-16 -17,-16l-31 0zm35 41l-21 0c-5,0 -7,-3 -7,-6 0,-4 2,-6 7,-6l24 0 0 9c0,2 0,3 -3,3zm33 -41c-5,0 -8,1 -8,8l0 43 11 0 0 -40c0,-1 0,-2 1,-2l17 0c11,0 15,5 15,13l0 29 11 0 0 -29c0,-14 -9,-22 -26,-22l-21 0zm79 0c-14,0 -23,8 -23,25 0,18 9,26 23,26l26 0 0 -10 -25 0c-9,0 -13,-5 -13,-16 0,-11 4,-16 13,-16l25 0 0 -9 -26 0zm53 0c-13,0 -18,7 -18,16l0 18c0,10 5,17 18,17l31 0 0 -10 -31 0c-6,0 -8,-3 -8,-7l0 -4 24 0c13,0 18,-5 18,-15 0,-10 -6,-15 -18,-15l-16 0zm-8 17c0,-4 2,-8 8,-8l16 0c5,0 7,3 7,7 0,4 -2,6 -7,6l-24 0 0 -5zm78 -17l0 51 10 0 0 -51 -10 0zm0 -20l0 12 10 0 0 -12 -10 0zm37 20c-12,0 -17,5 -17,15 0,7 3,15 17,15l13 0c5,0 7,1 7,5 0,4 -2,6 -7,6l-30 0 0 10 30 0c12,0 17,-6 17,-16 0,-8 -4,-14 -18,-14l-12 0c-6,0 -7,-2 -7,-6 0,-4 2,-6 7,-6l28 0 0 -9 -28 0zm66 -23l0 74 10 0 0 -42 18 0c11,0 16,5 16,13l0 29 10 0 0 -29c0,-14 -9,-22 -26,-22l-18 0 0 -23 -10 0zm83 23c-13,0 -18,7 -18,16l0 18c0,10 5,17 18,17l31 0 0 -10 -31 0c-6,0 -8,-3 -8,-7l0 -4 24 0c13,0 18,-5 18,-15 0,-10 -5,-15 -18,-15l-16 0zm-8 17c0,-4 2,-8 8,-8l16 0c5,0 8,3 8,7 0,4 -2,6 -8,6l-24 0 0 -5zm66 -17c-10,0 -14,4 -14,15l0 36 10 0 0 -35c0,-4 2,-7 7,-7l18 0 0 -9 -21 0zm45 0c-13,0 -18,7 -18,16l0 18c0,10 5,17 18,17l32 0 0 -10 -32 0c-5,0 -8,-3 -8,-7l0 -4 25 0c12,0 17,-5 17,-15 0,-10 -5,-15 -17,-15l-17 0zm-8 17c0,-4 3,-8 8,-8l17 0c5,0 7,3 7,7 0,4 -2,6 -8,6l-24 0 0 -5z"/>
   <path fill="#636363" d="M798 643l237 0 0 12 -237 0c-3,0 -6,-2 -6,-6l0 0c0,-3 3,-6 6,-6zm1943 0l237 0c3,0 6,3 6,6l0 0c0,4 -3,6 -6,6l-237 0 0 -12z"/>
   <path fill="#17969F" d="M1235 420c21,0 38,17 38,38 0,21 -17,38 -38,38 -21,0 -38,-17 -38,-38 0,-21 17,-38 38,-38z"/>
   <path fill="#17969F" d="M2227 420c21,0 38,17 38,38 0,21 -17,38 -38,38 -21,0 -37,-17 -37,-38 0,-21 16,-38 37,-38z"/>
  </g>
 </g>
</svg>
