<?xml version="1.0" encoding="UTF-8"?>
<!DOCTYPE svg PUBLIC "-//W3C//DTD SVG 1.1//EN" "http://www.w3.org/Graphics/SVG/1.1/DTD/svg11.dtd">
<!-- Creator: CorelDRAW X7 -->
<svg xmlns="http://www.w3.org/2000/svg" xml:space="preserve" width="825px" height="825px" version="1.1" shape-rendering="geometricPrecision" text-rendering="geometricPrecision" image-rendering="optimizeQuality" fill-rule="evenodd" clip-rule="evenodd"
viewBox="0 0 825 825"
 xmlns:xlink="http://www.w3.org/1999/xlink">
 <g id="Layer_x0020_1">
  <metadata id="CorelCorpID_0Corel-Layer"/>
  <rect fill="none" width="825" height="825"/>
  <path fill="#17969F" d="M413 97c182,0 330,147 330,330 0,134 -81,250 -196,301 172,-163 85,-218 -74,-304 -29,-16 -97,-47 -102,-80 -5,-40 101,-77 129,-87 50,-16 15,-16 -10,-13 -82,11 -168,41 -229,74 -33,19 -94,57 -90,102 4,49 81,86 111,120 51,59 0,112 -75,144l0 0c-76,-60 -125,-153 -125,-257 0,-183 148,-330 331,-330zm131 144l-3 20 18 -10 18 10 -4 -20 15 -14 -21 -3 -8 -18 -9 18 -21 3 15 14z"/>
 </g>
</svg>
